<?xml version="1.0" encoding="UTF-8" standalone="no"?>
<svg
   xmlns:dc="http://purl.org/dc/elements/1.1/"
   xmlns:cc="http://creativecommons.org/ns#"
   xmlns:rdf="http://www.w3.org/1999/02/22-rdf-syntax-ns#"
   xmlns:svg="http://www.w3.org/2000/svg"
   xmlns="http://www.w3.org/2000/svg"
   xmlns:sodipodi="http://sodipodi.sourceforge.net/DTD/sodipodi-0.dtd"
   xmlns:inkscape="http://www.inkscape.org/namespaces/inkscape"
   version="1.1"
   id="Layer_1"
   x="0px"
   y="0px"
   viewBox="0 0 1103.01 339.81"
   style="enable-background:new 0 0 1103.01 339.81;"
   xml:space="preserve"
   sodipodi:docname="logo.svg"
   inkscape:version="1.0.2 (e86c8708, 2021-01-15)"><metadata
   id="metadata71"><rdf:RDF><cc:Work
       rdf:about=""><dc:format>image/svg+xml</dc:format><dc:type
         rdf:resource="http://purl.org/dc/dcmitype/StillImage" /><dc:title /></cc:Work></rdf:RDF></metadata><defs
   id="defs69"><rect
     x="447.16622"
     y="96.531117"
     width="745.27703"
     height="99.370271"
     id="rect97" /><rect
     x="506.78838"
     y="109.30729"
     width="584.86502"
     height="90.852819"
     id="rect75" /></defs><sodipodi:namedview
   pagecolor="#ffffff"
   bordercolor="#666666"
   borderopacity="1"
   objecttolerance="10"
   gridtolerance="10"
   guidetolerance="10"
   inkscape:pageopacity="0"
   inkscape:pageshadow="2"
   inkscape:window-width="1920"
   inkscape:window-height="1027"
   id="namedview67"
   showgrid="false"
   inkscape:zoom="0.70443604"
   inkscape:cx="551.505"
   inkscape:cy="169.905"
   inkscape:window-x="1440"
   inkscape:window-y="25"
   inkscape:window-maximized="1"
   inkscape:current-layer="g28"
   inkscape:document-rotation="0" />
<style
   type="text/css"
   id="style10">
	.st0{fill:#005981;}
	.st1{fill:#E57536;}
	.st2{fill:#A9262C;}
	.st3{fill:#F9C926;}
</style>
<g
   id="g28"
   transform="translate(0,157.57286)">
	
	
	
	
	
	
	
	
<text
   xml:space="preserve"
   id="text73"
   style="fill:black;fill-opacity:1;line-height:1.25;stroke:none;font-family:sans-serif;font-style:normal;font-weight:normal;font-size:40px;white-space:pre;shape-inside:url(#rect75);" /><text
   xml:space="preserve"
   id="text95"
   style="font-style:normal;font-variant:normal;font-weight:bold;font-stretch:normal;font-size:65.33329999999999416px;line-height:1.25;font-family:sans-serif;-inkscape-font-specification:'sans-serif, Bold';font-variant-ligatures:normal;font-variant-caps:normal;font-variant-numeric:normal;font-variant-east-asian:normal;white-space:pre;shape-inside:url(#rect97);fill:#175a81;fill-opacity:1;stroke:none;"
   transform="matrix(1.0365933,0,0,1,-19.322663,4.2587259)"><tspan
     x="447.16602"
     y="156.1368"><tspan
       style="font-style:normal;font-variant:normal;font-weight:bold;font-stretch:normal;font-size:65.3333px;font-family:sans-serif;-inkscape-font-specification:'sans-serif, Bold';font-variant-ligatures:normal;font-variant-caps:normal;font-variant-numeric:normal;font-variant-east-asian:normal;fill:#175a81;fill-opacity:1">Connectivity Project</tspan></tspan></text></g>
<g
   id="g38">
	<path
   d="M1103.01,179.05c-0.74,3.93-1.24,7.94-2.28,11.79c-2.24,8.27-6.54,15.47-12.41,21.68c-10.09,10.68-22.26,17.94-36.54,21.58   c-6.02,1.53-12.14,2.36-18.34,2.65c-13.41,0.63-26.64-0.6-39.65-3.94c-15.35-3.94-29.26-10.72-41.15-21.35   c-6.51-5.82-11.98-12.52-16.32-20.11c-0.22-0.38-0.13-1.3,0.17-1.55c9.15-7.68,18.35-15.31,27.68-23.07   c0.39,0.51,0.75,0.94,1.08,1.39c7.59,10.52,16.98,18.99,28.6,24.85c8.89,4.49,18.33,7.05,28.3,7.58c7.55,0.4,15.05,0.11,22.33-2.12   c6.36-1.94,11.72-5.39,15.27-11.19c4.4-7.17,3.16-16.22-3.05-22.58c-4.51-4.63-10.14-7.51-16.15-9.46   c-9.56-3.09-19.25-5.74-28.87-8.65c-10.12-3.06-20.25-6.08-29.92-10.43c-7.97-3.58-15.42-7.98-21.61-14.23   c-8.53-8.61-12.78-19.12-13.57-31.14c-0.5-7.54,0.22-14.89,2.82-22c2.51-6.85,6.47-12.79,11.47-18.09   c8.91-9.44,19.56-16.1,31.94-19.97c7.71-2.41,15.62-3.72,23.69-4.12c10.94-0.54,21.78,0.02,32.52,2.34   c15.6,3.37,29.46,10.14,41.14,21.08c3.62,3.39,6.96,7.08,10.49,10.7c-8.94,8.59-17.63,16.94-26.33,25.29   c-2.71-2.41-5.25-4.8-7.92-7.03c-10.45-8.71-22.32-14.3-35.91-15.84c-9.38-1.06-18.72-0.89-27.81,2.11   c-5.15,1.7-9.69,4.4-12.54,9.18c-4.31,7.23-5.64,18.86,6.05,25.86c6.24,3.74,13.11,5.88,20.03,7.86   c10.36,2.97,20.79,5.73,31.09,8.92c8.79,2.72,17.43,5.9,25.64,10.13c8.49,4.38,15.91,10.04,21.45,17.94   c4.72,6.73,7.29,14.26,8.26,22.38c0.09,0.78,0.22,1.56,0.33,2.34C1103.01,172.9,1103.01,175.98,1103.01,179.05z"
   id="path30" />
	<path
   d="M451.01,232.15c0-67.08,0-133.99,0-201.12c0.69,0,1.31,0,1.92,0c29.43,0,58.87-0.06,88.3,0.03   c11.82,0.04,23.58,0.99,34.95,4.58c10.17,3.21,19.1,8.29,25.31,17.3c4.18,6.06,6.31,12.86,7.14,20.12   c1.07,9.38,0.37,18.59-2.88,27.52c-3.46,9.49-9.43,17.17-17.17,23.56c-0.65,0.54-1.27,1.12-1.9,1.69c-0.1,0.1-0.15,0.26-0.27,0.49   c2.34,1.15,4.7,2.21,6.95,3.44c11.81,6.42,18.64,16.46,21.14,29.52c2.2,11.49,2.07,22.91-1.54,34.16   c-4.1,12.78-12.52,21.88-24.17,28.16c-10.4,5.61-21.65,8.45-33.32,9.55c-6.84,0.64-13.73,0.93-20.6,0.96   c-27.21,0.11-54.41,0.04-81.62,0.04C452.58,232.15,451.89,232.15,451.01,232.15z M490.27,195.93c0.55,0,0.97,0,1.39,0   c16.38-0.05,32.76-0.04,49.13-0.17c5.94-0.05,11.82-0.8,17.51-2.63c5.14-1.65,9.71-4.18,12.79-8.84c3-4.53,3.75-9.61,3.48-14.88   c-0.45-8.63-4.44-14.93-12.49-18.49c-7.48-3.31-15.46-3.9-23.45-3.97c-15.53-0.14-31.07-0.04-46.6-0.04c-0.56,0-1.13,0-1.77,0   C490.27,163.3,490.27,179.49,490.27,195.93z M466.42,67.22c-0.03,0.12-0.05,0.24-0.08,0.36c0.23,0.11,0.45,0.24,0.68,0.34   c7.19,3.1,14.36,6.23,21.57,9.25c1.24,0.52,1.63,1.14,1.63,2.45c-0.05,10.18,0.01,20.35-0.07,30.53c-0.01,1.59,0.38,2.04,2.01,2.03   c15.38-0.07,30.76,0.01,46.14-0.08c3.1-0.02,6.24-0.34,9.3-0.84c5.51-0.89,10.64-2.78,14.84-6.66c7.71-7.13,6.49-19.37,2.68-26.05   c-2.92-5.13-7.8-7.58-13.23-9.15c-6.79-1.98-13.79-2.12-20.77-2.15c-21.06-0.09-42.11-0.03-63.17-0.03   C467.45,67.22,466.94,67.22,466.42,67.22z"
   id="path32" />
	<path
   d="M740.28,232.15c0-67.1,0-133.97,0-201.03c0.65-0.03,1.26-0.08,1.87-0.08c20.52,0,41.05-0.08,61.57,0.02   c15.97,0.08,31.79,1.58,47.25,5.88c14.45,4.02,27.76,10.3,39.1,20.26c9.68,8.49,16.81,18.83,21.6,30.78   c4.47,11.16,6.65,22.79,7.21,34.77c0.7,14.78-0.83,29.26-5.63,43.3c-4.18,12.21-10.68,23.05-19.35,32.65   c-12.06,13.37-27.08,21.77-44.16,26.85c-10.28,3.06-20.79,4.94-31.46,5.74c-6.59,0.49-13.21,0.78-19.82,0.82   c-18.72,0.11-37.44,0.04-56.16,0.04C741.68,232.15,741.05,232.15,740.28,232.15z M779.33,195.77c0.32,0.07,0.47,0.14,0.62,0.14   c12.24-0.16,24.49,0.57,36.71-0.65c11.3-1.13,22.22-3.64,32.32-9.08c11.45-6.18,19.7-15.24,24.32-27.4   c5.82-15.3,6.51-31.07,3.28-46.99c-2.35-11.56-7.97-21.35-17.21-28.87c-7.4-6.03-15.99-9.65-25.14-12.04   c-10.99-2.87-22.23-3.58-33.52-3.65c-15.65-0.09-31.29-0.02-46.94-0.02c-0.44,0-0.88,0.06-1.77,0.12c0.73,0.37,1.03,0.56,1.36,0.69   c8.07,3.3,16.13,6.63,24.23,9.87c1.32,0.53,1.77,1.17,1.77,2.64c-0.05,37.69-0.04,75.38-0.04,113.07   C779.33,194.3,779.33,194.99,779.33,195.77z"
   id="path34" />
	<path
   d="M654.1,31.12c12.98,0,25.9,0,38.98,0c0,66.95,0,133.86,0,200.9c-12.92,0-25.89,0-38.98,0   C654.1,165.12,654.1,98.16,654.1,31.12z"
   id="path36" />
</g>
<path
   d="M163.76,287.3c-0.71,3.72-1.21,7.28-2.08,10.75c-2.03,8.17-5.07,15.91-10.6,22.45c-9,10.63-20.64,16.47-34.26,18.5  c-8.33,1.24-16.7,1.14-24.93-0.8c-12.1-2.86-20.99-10.22-27.44-20.58c-2.59-4.15-4.6-8.66-6.75-12.76  c-4.92-0.67-10.02-0.98-14.93-2.12c-16.94-3.94-28.34-16.6-30.91-33.87c-1.01-6.8-0.84-13.6,0.14-20.39  c0.1-0.71-0.19-1.68-0.66-2.23c-5.06-6.06-9.01-12.69-10.59-20.51c-1.71-8.45-0.39-16.63,2.73-24.55c1.29-3.28,2.98-6.41,4.54-9.59  c0.4-0.8,0.49-1.43,0.19-2.34c-3.24-9.65-5.89-19.49-6.46-29.67c-1.01-18.15,4.48-34.08,17.22-47.3c1.17-1.22,3.01-2.2,3.43-3.62  c0.4-1.33-0.78-3.08-1.08-4.68c-2.7-14.21-0.98-27.49,8.42-39.08c3.9-4.8,8.82-8.36,14.43-10.91c1.29-0.59,1.52-1.29,1.42-2.51  c-0.6-6.8,0.48-13.32,3.71-19.36c5.09-9.54,12.76-15.55,23.78-16.54c2.82-0.25,5.71,0.04,8.55,0.29c1.12,0.1,1.66-0.14,2.28-1.07  c3.53-5.29,7.48-10.26,13.73-12.47c3.11-1.1,6.45-1.56,9.68-2.31c2.76,0,5.52,0,8.27,0c4.38,0.96,8.91,1.48,13.1,2.96  c14.86,5.24,24.78,15.31,28.35,30.91c2.05,8.97,0.64,17.77-2.47,26.32c-0.9,2.48-2.02,4.89-3.16,7.27c-0.43,0.9-0.51,1.56,0,2.47  c3.14,5.69,4.91,11.83,5.17,18.3c0.27,6.58-1.77,12.61-5.81,17.73c-1.75,2.22-1.63,3.83-0.45,6.1c1.94,3.75,3.62,7.65,5.33,11.52  c1.47,3.33,2.2,6.83,2.09,10.49c-0.02,0.78,0,1.57,0,2.55l-6.32,19.49c-0.84,3.62-1.25,7.19-2.52,10.42  c-1.16,2.95-1.06,5.19,0.44,8.05c4.08,7.76,6.66,16.09,8,24.79c0.06,0.4,0.72,0.77,1.18,1.01l-1.48,19.47  c-1.37,5.2-2.69,10.2-3.97,15.2c-0.1,0.39-0.03,0.96,0.2,1.28c4.77,6.61,6.76,14.29,8.44,22.07c0.57,2.63,0.98,5.31,1.3,7.98  c0.17,1.4,0.97,1.33,1.98,1.33 M136.84,231.02c0.54-1.77,1.07-3.36,1.53-4.98c1.94-6.85,3.37-13.82,2.83-20.97  c-0.81-10.53-4.46-20.18-10-29.12c-2.12-3.41-2.26-6.65-0.17-10.11c1.07-1.77,1.83-3.73,2.74-5.63c-3.04-0.21-5.74-0.23-8.39-0.6  c-4.57-0.63-9.12-1.5-12.99-4.25c-6.02-4.28-9.84-10.25-11.91-17.16c-1.48-4.92-2.02-10.13-3.01-15.2  c-0.79-4.06-1.64-8.12-4.4-11.41c-3.79-4.53-8.94-6.4-14.57-7.29c-0.68-0.11-1.36-0.2-2.3-0.34c2.77-2.67,5.66-4.29,9.08-4.94  c3.43-0.65,6.65,0.14,9.95,1.66c-1.32-5.28-1.16-10.23,0.33-15.15c2.15-7.11,8.12-11.74,14.92-11.56c4.23,0.11,8.53,2.9,9.84,6.44  c-0.5,0-0.97,0.02-1.43,0c-7.33-0.41-12.38,3.45-13.87,10.67c-0.93,4.53-0.53,9.08,0.25,13.56c0.93,5.25,2.23,10.44,3.3,15.66  c1.2,5.85,2.25,11.74,3.52,17.57c1.69,7.77,8.23,11.4,14.36,11.39c5.52-0.01,12.68-2.87,14.28-11.5c0.44-2.37,0.94-4.75-0.1-7.02  c-3.1-6.78-6.15-13.58-9.54-20.22c-2.41-4.73-4.7-9.46-5.79-14.69c-0.27-1.28-0.41-2.58-0.61-3.88c0.59,0.32,0.81,0.74,1.09,1.11  c1.29,1.74,2.44,3.61,3.92,5.18c2.51,2.65,3.63,2.59,6.08-0.01c2.78-2.96,4.65-6.35,4.16-10.58c-0.55-4.82-2.27-9.23-5.22-13.11  c-2.52-3.33-2.75-6.98-0.51-10.45c2.99-4.62,5.1-9.6,6.33-14.97c2.59-11.34-1.29-21.3-10.79-27.43c-6.26-4.04-13.22-5.6-20.6-5.14  c-2.99,0.19-6.08,0.53-8.17,3.18c-1.18,1.49-2.43,2.95-3.44,4.55c-2.93,4.61-3.49,9.82-3.41,15.09c0.06,3.9,0.95,7.65,3.17,10.98  c2.83,4.24,6.05,5.02,10.41,2.42c0.95-0.57,1.89-1.19,2.7-1.93c2.45-2.26,4.82-4.61,7.26-6.88c1.29-1.2,2.51-2.56,4.82-2.95  c0.08,1.69,0.34,3.25,0.2,4.78c-0.26,2.75-1.8,4.95-3.65,6.88c-5.84,6.1-13.22,9.79-20.86,13.01c-2.33,0.98-4.06,0.27-5.38-1.94  c-0.72-1.21-1.36-2.55-1.68-3.91c-0.95-4.06-1.66-8.18-2.59-12.24c-0.77-3.34-1.56-6.69-2.63-9.94c-0.81-2.45-2.26-4.46-5.08-5.2  c-6.93-1.81-12.7,0.34-16.33,6.5c-3.22,5.47-3.33,11.27-1.11,17.11c1.37,3.6,2.89,7.16,4.53,10.65c3.58,7.68,7.98,14.81,14.48,20.44  c0.96,0.83,1.88,1.71,2.93,2.67c-3.88,0.94-6.9,0.46-10.18-1.52c-4.98-3-8.6-7.46-12.58-11.55c-2.39-2.45-4.99-4.71-7.64-6.88  c-1.53-1.25-3.35-1.48-5.15-0.24c-1.43,0.99-2.98,1.83-4.34,2.9c-9.12,7.14-10.32,21.32-7.19,29.92c0.36,0.99,1.22,2.02,2.13,2.54  c6.22,3.6,13.12,4.94,20.17,5.66c2.87,0.29,5.75,0.4,8.63,0.59c0.09,0.14,0.18,0.29,0.28,0.43c-0.28,0.14-0.6,0.23-0.83,0.42  c-3.32,2.69-7.2,3.83-11.37,3.72c-4.01-0.11-8.02-0.53-12.02-0.93c-4.04-0.4-4.95,0.33-6.4,4.31c-2.11,5.8-0.86,11.47,1.3,17  c2.91,7.46,7.86,12.33,16.33,12.66c0.16,0.01,0.31,0.08,0.47,0.1c5.41,0.64,9.72-0.71,12.92-5.64c3.18-4.89,8.24-7.86,13.06-11.04  c0.09,0.2,0.13,0.25,0.12,0.28c-0.29,0.62-0.6,1.23-0.89,1.86c-2.88,6.34-5.49,12.76-4.73,19.95c0.7,6.64,1.71,13.21,4.38,19.41  c3.44,7.97,10.05,11.79,18.09,10.32c5.06-0.93,8.99-3.85,12.36-7.57c1.37-1.51,2.57-3.17,4.01-4.96c-0.51,5.94-1.15,11.6-3.37,16.93  c-1.07,2.56-2.44,4.97-5.12,5.52c1.19,8.35,3.86,16.09,9.17,22.69C122.18,223.26,128.13,228.84,136.84,231.02z M37.95,178.48  c1,0.46,1.76,0.84,2.53,1.17c6.58,2.8,13.31,4.53,20.53,2.95c6.19-1.35,9.41-5.09,9.01-11.3c-0.2-3.18-1.17-6.32-1.99-9.43  c-0.17-0.64-1.1-1.3-1.82-1.53c-0.92-0.28-1.99-0.21-2.98-0.16c-2.9,0.16-5.78,0.45-8.68,0.58c-5.19,0.23-9.55-2.01-13.68-4.8  c-6.02-4.08-11.13-9.03-13.9-15.89c-1.1-2.72-1.5-5.71-2.19-8.47c-3.69,5.77-5.81,12.33-6.45,19.38c-0.59,6.5,0.35,12.86,1.77,19.19  c1.62,7.25,3.5,14.42,6.99,21c4.87,9.17,11.89,16.35,20.87,21.67c5.93,3.52,12.17,5.32,19.07,4.56c4.15-0.46,7.93-1.79,11.06-4.68  c2.39-2.21,3.94-4.89,4.52-8.1c3.87,1.29,4.79,4.85,4.59,7.57c-0.28,3.86-1.91,7.21-4.31,10.23c-2.01,2.53-4.54,4.34-7.63,5.54  c2.3,1.91,4.52,3.62,6.57,5.5c3.24,2.99,5.79,6.38,5.22,11.17c-0.43,3.66-0.93,7.31-1.4,11c1.9,0.29,4.13,0.46,6.26,1.01  c2.1,0.54,4.1,1.47,6.13,2.23c-0.13-6.16,2.56-11.46,5.9-16.55c0.28,1.36,0.38,2.67,0.47,3.99c0.55,7.4,2.06,14.46,6.05,20.95  c3.8,6.19,6.74,12.82,7.81,20.12c0.4,2.73,0.48,5.45-0.26,8.16c-1.55-3.35-2.99-6.64-4.57-9.86c-5.75-11.72-15.39-18.23-28.01-20.62  c-2.68-0.51-5.48-1.01-7.58,1.58c-0.19,0.23-0.53,0.35-0.8,0.51c-3.57,2.08-7.5,3.13-11.49,3.97c-5.32,1.12-10.71,1.69-16.17,1.65  c0.35-0.25,0.73-0.36,1.11-0.49c6.41-2.18,12.47-5.02,17.63-9.51c4.36-3.8,7.36-8.36,8.25-14.22c0.84-5.46-1.02-9.51-5.82-12.22  c-1.2-0.67-2.38-1.39-3.64-1.92c-8.38-3.53-16.79-6.96-24.39-12.11c-6.05-4.1-12.4-7.77-17.49-13.12c-1.65-1.73-3.01-3.74-4.57-5.7  c-0.5,1.15-1.02,2.24-1.46,3.38c-1.84,4.8-3.08,9.7-2.18,14.88c1.01,5.85,4.03,10.73,8.17,14.77c5.53,5.41,12.46,8.3,20,9.65  c3.66,0.66,7.41,0.86,11.26,1.29c-7.99,8.41-17.49,9.61-28.15,6c-0.1,0.68-0.25,1.25-0.25,1.81c0.04,3.43-0.17,6.9,0.23,10.29  c0.74,6.21,3.07,11.77,8.02,15.89c6.74,5.62,14.79,6.95,23.15,6.26c4.54-0.38,9.01-1.8,13.47-2.9c3.07-0.75,6.07-1.76,9.1-2.65  c0.1,0.1,0.21,0.2,0.31,0.3c-2.87,3.89-5.69,7.82-8.66,11.63c-0.81,1.05-1.13,1.89-0.56,3.1c1.7,3.63,3.04,7.47,5.08,10.9  c4.78,8.01,11.55,13.44,21.11,14.65c7.16,0.91,14.26,0.64,21.23-1.43c7.9-2.34,14.62-6.47,19.36-13.32  c4.05-5.86,5.98-12.59,7.03-19.54c1.77-11.69-0.01-23.08-3.24-34.31c-0.26-0.9-0.57-1.89-1.17-2.55c-1.52-1.68-3.03-3.48-4.88-4.75  c-6.17-4.26-12.33-8.59-18.8-12.37c-5.93-3.47-10.05-8.03-12.05-14.64c-1.62-5.35-3.54-10.62-5.38-15.91  c-1.37-3.94-4.05-6.63-8.03-7.96c-2.96-0.98-5.95-1.86-8.88-2.92c-2.88-1.04-5.86-1.99-7.26-4.8c-1.69,0.68-3.25,1.66-4.91,1.9  c-3.96,0.57-7.97,1.08-11.96,1.07c-5.59-0.01-11.08-1-16.09-3.69C40.6,185.63,37.95,183.05,37.95,178.48z"
   id="path40" />
<path
   class="st0"
   d="M200.58,93.81c-8.7,0-17.4,0-26.1,0c-4.17,0-6.49-2.31-6.5-6.49c-0.01-11.24,0.07-22.48-0.05-33.71  c-0.04-3.61,2.54-7.02,6.62-6.5c1.66,0.21,2.4-0.36,2.85-2.02c0.78-2.95,1.75-3.54,4.79-3.54c5.36-0.01,10.71-0.01,16.07,0  c2.62,0,3.84,0.77,4.49,3.32c0.46,1.82,1.32,2.31,3.16,2.27c7.05-0.13,14.11-0.05,21.16-0.05c3.37,0,5.9,2.35,5.91,5.72  c0.05,11.77,0.05,23.54,0,35.3c-0.02,3.38-2.61,5.69-6.16,5.69C218.08,93.82,209.33,93.81,200.58,93.81z M172.4,56.2  c18.54,0,36.82,0,55.25,0c-0.7-1.3-1.25-2.51-1.99-3.58c-0.32-0.47-1.04-0.93-1.59-0.93c-15.75-0.05-31.5-0.04-47.25-0.02  c-0.44,0-1.06,0.08-1.3,0.37C174.46,53.32,173.52,54.69,172.4,56.2z"
   id="path42" />
<path
   class="st1"
   d="M286.58,234.3c-13.74,0-27.36,0-41.09,0c0-16.21,0-32.38,0-48.64c7.14,0,14.22,0,21.55,0  c0,6.74,0,13.48,0,20.35c6.63,0,13.03,0,19.54,0C286.58,215.48,286.58,224.82,286.58,234.3z"
   id="path44" />
<path
   class="st2"
   d="M247.49,253.77c7.14,0,14.23,0,21.56,0c0,6.75,0,13.49,0,20.35c6.63,0,13.03,0,19.54,0c0,9.47,0,18.8,0,28.23  c-13.67,0-27.32,0-41.1,0C247.49,286.2,247.49,270.03,247.49,253.77z"
   id="path46" />
<path
   class="st3"
   d="M269.12,140.45c6.64,0,12.99,0,19.47,0c0,9.41,0,18.71,0,28.12c-13.66,0-27.32,0-41.09,0  c0-16.12,0-32.26,0-48.52c7.11,0,14.28,0,21.63,0C269.12,126.81,269.12,133.52,269.12,140.45z"
   id="path48" />
<path
   class="st0"
   d="M273.79,61.98c0,15.53,0,30.92,0,46.46c-6.41,0-12.79,0-19.37,0c0-8.93,0-17.9,0-26.99c-5.58,0-10.97,0-16.47,0  c0-6.54,0-12.96,0-19.47C249.86,61.98,261.72,61.98,273.79,61.98z"
   id="path50" />
<path
   class="st1"
   d="M288.79,202.18c-5.09,0-9.87,0-14.74,0c0-5.09,0-10.1,0-15.63C279.08,191.89,283.85,196.93,288.79,202.18z"
   id="path52" />
<path
   class="st3"
   d="M274.07,119.91c4.97,5.28,9.71,10.3,14.66,15.55c-5.04,0-9.79,0-14.66,0  C274.07,130.37,274.07,125.31,274.07,119.91z"
   id="path54" />
<path
   class="st2"
   d="M274.07,253.58c4.95,5.26,9.64,10.23,14.57,15.47c-5.06,0-9.76,0-14.57,0  C274.07,264.01,274.07,259.01,274.07,253.58z"
   id="path56" />
<path
   d="M323.25,299.65c1.75-7.71,3.38-14.61,4.83-21.56c0.37-1.79,1.1-2.62,2.88-2.91c3.66-0.59,7.28-1.56,10.95-1.94  c1.65-0.17,3.6,0.34,5.06,1.16c2.65,1.5,4.88,3.8,7.59,5.14c3.27,1.62,3.4,3.7,2.49,6.79c-1.87,6.38-3.41,12.85-5.27,19.98  c1.57-0.47,2.67-0.68,3.68-1.12c16.87-7.18,23.78-27.18,14.77-43.1c-2.52-4.45-5.15-8.96-8.49-12.79  c-5.02-5.77-5.83-12.45-5.99-19.56c-0.59-26.14-1.3-52.28-1.86-78.43c-0.36-16.72-0.48-33.45-0.82-50.17  c-0.09-4.62,2.16-8.01,4.71-11.55c3.17-4.39,6.47-8.88,8.57-13.81c4.16-9.73,0.72-22.42-7.49-29.37c-1.27,5.46-2.55,10.68-3.7,15.93  c-1.27,5.8-1.32,5.42-6.95,6.89c-6.44,1.68-13.51,0.89-18.25-3.93c-0.45-0.46-2.84-4.01-2.06-6.63c1.8-6.02,3.22-12.16,4.92-18.78  c-9.66,2.99-16.1,8.85-19.01,17.92c-3.19,9.93-1.45,19.22,5.42,27.34c5.24,6.2,10.63,12.43,11.44,20.95  c0.55,5.76,0.41,11.58,0.54,17.37c0.62,28.54,1.22,57.08,1.82,85.61c0.1,4.92,0.13,9.84,0.25,14.76c0.23,9.14-3.15,16.95-8.17,24.42  c-4.87,7.24-9.61,14.7-11.25,23.5C311.88,282.48,315.33,291.45,323.25,299.65z M338.08,126.46l0.02-0.07c0,0,0.02-8.21-0.16-12.1  c-0.13-2.78,1.3-4.36,4.02-4.57c2.65-0.21,4.16,1.64,4.24,5.04c0.15,7.1,0.22,14.21,0.39,21.31c0.65,26.44,1.34,52.88,2,79.32  c0.05,2.07-0.06,4.15-0.13,6.23c-0.07,2.43-1.67,3.64-3.78,3.75c-2.29,0.13-3.99-1.09-4.3-3.59c-0.16-1.3-0.19-2.62-0.22-3.93  C339.46,187.39,338.08,126.46,338.08,126.46z M326.64,253.76c4.47-9.04,23.21-12.1,31.59-2.86  C340.99,246.82,337.94,247.09,326.64,253.76z M324.71,86.91c10.9,5.95,21.19,5.77,31.98-0.46C349.1,96.2,333.11,96.38,324.71,86.91z  "
   id="path58" />
<path
   class="st3"
   d="M157.73,136.61c25.61,0,51.03,0,76.58,0c0,6.58,0,12.96,0,19.49c-27.75,0-55.47,0-82.9,0"
   id="path60" />
<path
   class="st1"
   d="M158.49,200.36c0.29,0.15,0.73,0.03,1.1,0.03c24.24,0,48.48,0,72.72,0c0.63,0,1.26,0,2,0  c0,6.51,0,12.89,0,19.44c-25.86,0-51.66,0-77.3,0"
   id="path62" />
<path
   class="st2"
   d="M164.96,267.69c18.94-0.01,37.87-0.01,56.81-0.01c4.13,0,8.26,0,12.52,0c0,6.57,0,12.99,0,19.62  c-23.57,0-47.08,0-70.53,0"
   id="path64" />
</svg>
